<?xml version="1.0" encoding="iso-8859-1"?>
<!-- Generator: Adobe Illustrator 28.3.0, SVG Export Plug-In . SVG Version: 6.00 Build 0)  -->
<svg version="1.1" id="&#x30EC;&#x30A4;&#x30E4;&#x30FC;_1"
	 xmlns="http://www.w3.org/2000/svg" xmlns:xlink="http://www.w3.org/1999/xlink" x="0px" y="0px" viewBox="0 0 626 120.679"
	 style="enable-background:new 0 0 626 120.679;" xml:space="preserve">
<g>
	<g>
		<radialGradient id="SVGID_1_" cx="6.3787" cy="59.2032" r="604.2273" gradientUnits="userSpaceOnUse">
			<stop  offset="0" style="stop-color:#00C8FF"/>
			<stop  offset="1" style="stop-color:#00155C"/>
		</radialGradient>
		<path style="fill:url(#SVGID_1_);" d="M124.451,0h-22.638c-2.071,0-3.763,1.699-3.763,3.77v9.48C87.718,4.968,74.622,0,60.344,0
			C27.007,0,0,27.015,0,60.337s27.007,60.342,60.344,60.342c14.278,0,27.374-4.968,37.706-13.256v9.472
			c0,2.087,1.692,3.785,3.763,3.785h22.638c2.071,0,3.777-1.697,3.777-3.785V3.77C128.228,1.699,126.522,0,124.451,0z
			 M60.344,90.508c-16.661,0-30.178-13.51-30.178-30.171s13.517-30.173,30.178-30.173s30.164,13.512,30.164,30.173
			S77.005,90.508,60.344,90.508z"/>
		
			<radialGradient id="SVGID_00000034051221216777181130000006817068384225896592_" cx="6.3787" cy="59.2032" r="604.2273" gradientUnits="userSpaceOnUse">
			<stop  offset="0" style="stop-color:#00C8FF"/>
			<stop  offset="1" style="stop-color:#00155C"/>
		</radialGradient>
		<path style="fill:url(#SVGID_00000034051221216777181130000006817068384225896592_);" d="M373.337,0h-22.638
			c-2.058,0-3.75,1.699-3.75,3.77v9.48C336.603,4.968,323.509,0,309.231,0c-33.322,0-60.344,27.015-60.344,60.337
			s27.022,60.342,60.344,60.342c14.278,0,27.372-4.968,37.719-13.256v9.472c0,2.087,1.692,3.785,3.75,3.785h22.638
			c2.071,0,3.763-1.697,3.763-3.785V3.77C377.1,1.699,375.409,0,373.337,0z M309.231,90.508c-16.661,0-30.165-13.51-30.165-30.171
			s13.504-30.173,30.165-30.173c16.66,0,30.164,13.512,30.164,30.173S325.89,90.508,309.231,90.508z"/>
		
			<radialGradient id="SVGID_00000183932043432135241410000017011166100455670180_" cx="6.3787" cy="59.2032" r="604.2273" gradientUnits="userSpaceOnUse">
			<stop  offset="0" style="stop-color:#00C8FF"/>
			<stop  offset="1" style="stop-color:#00155C"/>
		</radialGradient>
		<path style="fill:url(#SVGID_00000183932043432135241410000017011166100455670180_);" d="M622.223,0h-22.609
			c-2.086,0-3.777,1.699-3.777,3.77v9.48C585.49,4.962,572.395,0,558.116,0c-33.322,0-60.329,27.015-60.329,60.337
			s27.007,60.342,60.329,60.342c14.279,0,27.374-4.968,37.72-13.256v9.472c0,2.087,1.692,3.785,3.777,3.785h22.609
			c2.087,0,3.777-1.697,3.777-3.785V3.77C626,1.699,624.31,0,622.223,0z M558.116,90.508c-16.661,0-30.164-13.51-30.164-30.171
			s13.503-30.173,30.164-30.173s30.165,13.512,30.165,30.173S574.777,90.508,558.116,90.508z"/>
		
			<radialGradient id="SVGID_00000034794553749184525150000007977713643870620061_" cx="6.3787" cy="59.2032" r="604.2273" gradientUnits="userSpaceOnUse">
			<stop  offset="0" style="stop-color:#00C8FF"/>
			<stop  offset="1" style="stop-color:#00155C"/>
		</radialGradient>
		<path style="fill:url(#SVGID_00000034794553749184525150000007977713643870620061_);" d="M226.263,0.007
			c-10.994,0-21.284,2.953-30.164,8.084V3.77c0-2.071-1.692-3.77-3.764-3.77h-22.637c-2.073,0-3.764,1.699-3.764,3.77v113.124
			c0,2.087,1.692,3.785,3.764,3.785h22.637c2.073,0,3.764-1.697,3.764-3.785V60.288c0.027-16.641,13.532-30.124,30.164-30.124
			c2.073,0,3.777-1.69,3.777-3.763V3.017C230.04,0.944,228.336,0.007,226.263,0.007z"/>
		
			<radialGradient id="SVGID_00000002343662143788552690000010044392124296507806_" cx="6.3787" cy="59.2032" r="604.2273" gradientUnits="userSpaceOnUse">
			<stop  offset="0" style="stop-color:#00C8FF"/>
			<stop  offset="1" style="stop-color:#00155C"/>
		</radialGradient>
		<path style="fill:url(#SVGID_00000002343662143788552690000010044392124296507806_);" d="M475.163,0.007
			c-10.994,0-21.284,2.953-30.164,8.084V3.77c0-2.071-1.692-3.77-3.777-3.77h-22.624c-2.073,0-3.777,1.699-3.777,3.77v113.124
			c0,2.087,1.705,3.785,3.777,3.785h22.624c2.086,0,3.777-1.697,3.777-3.785V60.288c0.029-16.641,13.517-30.124,30.164-30.124
			c2.073,0,3.764-1.69,3.764-3.763V3.017C478.927,0.944,477.236,0.007,475.163,0.007z"/>
	</g>
</g>
</svg>
