<?xml version="1.0" encoding="iso-8859-1"?>
<!-- Generator: Adobe Illustrator 27.9.2, SVG Export Plug-In . SVG Version: 6.00 Build 0)  -->
<svg version="1.1" id="&#x30EC;&#x30A4;&#x30E4;&#x30FC;_1"
	 xmlns="http://www.w3.org/2000/svg" xmlns:xlink="http://www.w3.org/1999/xlink" x="0px" y="0px" viewBox="0 0 304.056 388.742"
	 style="enable-background:new 0 0 304.056 388.742;" xml:space="preserve">
<g>
	<radialGradient id="SVGID_1_" cx="54.4009" cy="31.8386" r="265.3878" gradientUnits="userSpaceOnUse">
		<stop  offset="0" style="stop-color:#00C8FF"/>
		<stop  offset="1" style="stop-color:#00155C"/>
	</radialGradient>
	<path style="fill:url(#SVGID_1_);" d="M295.099,0h-53.68c-4.912,0-8.923,4.028-8.923,8.94v22.479
		C207.997,11.781,176.945,0,143.089,0C64.04,0,0,64.057,0,143.071c0,79.014,64.04,143.084,143.089,143.084
		c33.856,0,64.909-11.781,89.408-31.433v22.46c0,4.949,4.012,8.974,8.923,8.974h53.68c4.911,0,8.957-4.025,8.957-8.974V8.94
		C304.056,4.028,300.01,0,295.099,0z M143.089,214.613c-39.507,0-71.56-32.035-71.56-71.542s32.053-71.546,71.56-71.546
		s71.525,32.039,71.525,71.546S182.595,214.613,143.089,214.613z"/>
	<g>
		<g>
			
				<radialGradient id="SVGID_00000134215470501172809120000001630103563905671601_" cx="3.0989" cy="358.8825" r="293.4801" gradientUnits="userSpaceOnUse">
				<stop  offset="0" style="stop-color:#00C8FF"/>
				<stop  offset="1" style="stop-color:#00155C"/>
			</radialGradient>
			<path style="fill:url(#SVGID_00000134215470501172809120000001630103563905671601_);" d="M60.448,330.127H49.452
				c-1.006,0-1.828,0.825-1.828,1.831v4.605c-5.018-4.023-11.379-6.436-18.314-6.436c-16.192,0-29.31,13.121-29.31,29.306
				s13.118,29.309,29.31,29.309c6.935,0,13.296-2.413,18.314-6.439v4.6c0,1.014,0.822,1.838,1.828,1.838h10.996
				c1.006,0,1.835-0.824,1.835-1.838v-54.946C62.283,330.952,61.454,330.127,60.448,330.127z M29.31,374.088
				c-8.092,0-14.658-6.562-14.658-14.655s6.566-14.655,14.658-14.655s14.651,6.563,14.651,14.655S37.403,374.088,29.31,374.088z"/>
			
				<radialGradient id="SVGID_00000150786866516427387720000018022958897873505446_" cx="3.0989" cy="358.8825" r="293.4801" gradientUnits="userSpaceOnUse">
				<stop  offset="0" style="stop-color:#00C8FF"/>
				<stop  offset="1" style="stop-color:#00155C"/>
			</radialGradient>
			<path style="fill:url(#SVGID_00000150786866516427387720000018022958897873505446_);" d="M181.335,330.127h-10.996
				c-1,0-1.821,0.825-1.821,1.831v4.605c-5.025-4.023-11.385-6.436-18.32-6.436c-16.185,0-29.31,13.121-29.31,29.306
				s13.125,29.309,29.31,29.309c6.935,0,13.295-2.413,18.32-6.439v4.6c0,1.014,0.822,1.838,1.821,1.838h10.996
				c1.006,0,1.828-0.824,1.828-1.838v-54.946C183.163,330.952,182.341,330.127,181.335,330.127z M150.198,374.088
				c-8.092,0-14.652-6.562-14.652-14.655s6.559-14.655,14.652-14.655c8.092,0,14.651,6.563,14.651,14.655
				S158.289,374.088,150.198,374.088z"/>
			
				<radialGradient id="SVGID_00000138554780996640935400000009854541441642645910_" cx="3.0989" cy="358.8825" r="293.4801" gradientUnits="userSpaceOnUse">
				<stop  offset="0" style="stop-color:#00C8FF"/>
				<stop  offset="1" style="stop-color:#00155C"/>
			</radialGradient>
			<path style="fill:url(#SVGID_00000138554780996640935400000009854541441642645910_);" d="M302.221,330.127H291.24
				c-1.013,0-1.835,0.825-1.835,1.831v4.605c-5.025-4.026-11.385-6.436-18.321-6.436c-16.185,0-29.303,13.121-29.303,29.306
				s13.118,29.309,29.303,29.309c6.936,0,13.296-2.413,18.321-6.439v4.6c0,1.014,0.822,1.838,1.835,1.838h10.982
				c1.014,0,1.835-0.824,1.835-1.838v-54.946C304.056,330.952,303.235,330.127,302.221,330.127z M271.084,374.088
				c-8.092,0-14.651-6.562-14.651-14.655s6.559-14.655,14.651-14.655s14.652,6.563,14.652,14.655S279.176,374.088,271.084,374.088z"
				/>
			
				<radialGradient id="SVGID_00000142143364166001300730000002403763531355557300_" cx="3.0989" cy="358.8825" r="293.4801" gradientUnits="userSpaceOnUse">
				<stop  offset="0" style="stop-color:#00C8FF"/>
				<stop  offset="1" style="stop-color:#00155C"/>
			</radialGradient>
			<path style="fill:url(#SVGID_00000142143364166001300730000002403763531355557300_);" d="M109.899,330.13
				c-5.34,0-10.338,1.434-14.651,3.927v-2.099c0-1.006-0.822-1.831-1.828-1.831H82.425c-1.007,0-1.828,0.825-1.828,1.831v54.946
				c0,1.014,0.822,1.838,1.828,1.838H93.42c1.007,0,1.828-0.824,1.828-1.838v-27.495c0.013-8.083,6.573-14.631,14.651-14.631
				c1.007,0,1.835-0.821,1.835-1.828v-11.358C111.734,330.585,110.906,330.13,109.899,330.13z"/>
			
				<radialGradient id="SVGID_00000111174140864748548270000010109950169112853666_" cx="3.0989" cy="358.8825" r="293.4801" gradientUnits="userSpaceOnUse">
				<stop  offset="0" style="stop-color:#00C8FF"/>
				<stop  offset="1" style="stop-color:#00155C"/>
			</radialGradient>
			<path style="fill:url(#SVGID_00000111174140864748548270000010109950169112853666_);" d="M230.793,330.13
				c-5.34,0-10.338,1.434-14.651,3.927v-2.099c0-1.006-0.822-1.831-1.835-1.831h-10.989c-1.007,0-1.835,0.825-1.835,1.831v54.946
				c0,1.014,0.828,1.838,1.835,1.838h10.989c1.013,0,1.835-0.824,1.835-1.838v-27.495c0.014-8.083,6.566-14.631,14.651-14.631
				c1.007,0,1.828-0.821,1.828-1.828v-11.358C232.621,330.585,231.799,330.13,230.793,330.13z"/>
		</g>
	</g>
</g>
</svg>
